<svg height="100%" width="100%" xmlns="http://www.w3.org/2000/svg" viewBox="0 0 32 32">
	<path d="M25.5 8h-5.768L19 9.099 18.268 8H10V6.5C10 5.098 8.462 4 6.5 4S3 5.098 3 6.5v15C3 22.902 4.538 24 6.5 24h1.768L9 22.901 9.732 24H22v1.5c0 1.402 1.538 2.5 3.5 2.5s3.5-1.098 3.5-2.5v-15C29 9.098 27.462 8 25.5 8zm-19-3C7.855 5 9 5.687 9 6.5V8H6.5C5.145 8 4 7.313 4 6.5S5.145 5 6.5 5zm3.768 18L9 21.099 7.732 23H6.5C5.145 23 4 22.313 4 21.5V8.266C4.631 8.722 5.511 9 6.5 9h11.232L19 10.901 20.268 9H25.5c1.355 0 2.5.687 2.5 1.5S26.855 12 25.5 12s-2.5-.687-2.5-1.5a.5.5 0 00-1 0V23H10.268zM23 12.266c.631.456 1.511.734 2.5.734.989 0 1.869-.28 2.5-.736V25.5c0 .813-1.145 1.5-2.5 1.5s-2.5-.687-2.5-1.5V12.266z"/>
	<path d="M15.354 12.354l-.708-.708-1.146 1.147-1.146-1.147-.708.708 1.147 1.146-1.147 1.146.708.708 1.146-1.147 1.146 1.147.708-.708-1.147-1.146z"/>
	<circle cx="10.5" cy="13.5" r=".5"/>
	<circle cx="8.5" cy="14.5" r=".5"/>
	<circle cx="7.5" cy="16.5" r=".5"/>
	<circle cx="8.5" cy="18.5" r=".5"/>
	<circle cx="10.5" cy="19.5" r=".5"/>
	<circle cx="12.5" cy="19.5" r=".5"/>
	<circle cx="14.5" cy="19.5" r=".5"/>
	<circle cx="16.5" cy="19.5" r=".5"/>
	<circle cx="18.5" cy="19.5" r=".5"/>
	<circle cx="20.5" cy="19.5" r=".5"/>
</svg>
